<?xml version="1.0" encoding="UTF-8" standalone="no"?>
<!DOCTYPE svg PUBLIC "-//W3C//DTD SVG 1.1//EN" "http://www.w3.org/Graphics/SVG/1.1/DTD/svg11.dtd">
<svg width="100%" height="100%" viewBox="0 0 64 64" version="1.1" xmlns="http://www.w3.org/2000/svg" xmlns:xlink="http://www.w3.org/1999/xlink" xml:space="preserve" xmlns:serif="http://www.serif.com/" style="fill-rule:evenodd;clip-rule:evenodd;stroke-linejoin:round;stroke-miterlimit:2;">
    <g transform="matrix(1.11118,0,0,1.11118,-3.49943,-1.1948)">
        <g transform="matrix(0.0158103,0,0,0.0158103,46.7869,29.8807)">
            <g transform="matrix(1,0,0,1,-885.5,-1249.9)">
                <clipPath id="_clip1">
                    <rect x="0" y="0" width="1771" height="2499.8"/>
                </clipPath>
                <g clip-path="url(#_clip1)">
                    <path d="M1387.8,92.5L1240.9,92.5L1393.7,258.4L1393.7,337.3L1078.9,337.3L1078.9,244.9L1231.7,244.9L1078.9,79L1078.9,0L1387.9,0L1387.8,92.5ZM1016.4,92.5L869.3,92.5L1022.3,258.4L1022.3,337.3L707.4,337.3L707.4,244.9L860.2,244.9L707.4,79L707.4,0L1016.4,0L1016.4,92.5ZM648.6,96.3L490.1,96.3L490.1,241.1L648.6,241.1L648.6,337.4L377.3,337.4L377.3,0L648.6,0L648.6,96.3Z" style="fill:rgb(19,19,19);fill-rule:nonzero;"/>
                    <path d="M161.2,2299.1L0,491.4L1771,491.4L1609.6,2298.8L884.4,2499.8L161.2,2299.1Z" style="fill:rgb(21,114,182);fill-rule:nonzero;"/>
                    <path d="M885.5,2346.2L1471.5,2183.7L1609.3,639.2L885.5,639.2L885.5,2346.2Z" style="fill:rgb(51,169,220);fill-rule:nonzero;"/>
                    <path d="M885.5,1294.1L1178.9,1294.1L1199.1,1067.1L885.5,1067.1L885.5,845.5L1441.5,845.5L1436.2,905L1381.7,1516L885.5,1516L885.5,1294.1Z" style="fill:white;fill-rule:nonzero;"/>
                    <path d="M887.2,1869.9L885.7,1869.9L638.8,1803.2L623,1626.4L400.6,1626.4L431.7,1974.5L885.9,2100.9L887.2,2100.9L887.2,1869.9Z" style="fill:rgb(235,235,235);fill-rule:nonzero;"/>
                    <path d="M1160.1,1506.3L1133.4,1803L886.1,1869.7L886.1,2100.7L1340.6,1974.7L1343.9,1937.2L1382.5,1506.2L1160.1,1506.2L1160.1,1506.3Z" style="fill:white;fill-rule:nonzero;"/>
                    <path d="M886.3,845.5L886.3,1067.2L350.9,1067.2L346.3,1017.4L336.2,905L330.9,845.5L886.3,845.5ZM885.5,1294.1L885.5,1515.8L641.4,1515.8L637.1,1466L627,1353.6L621.7,1294.1L885.5,1294.1Z" style="fill:rgb(235,235,235);fill-rule:nonzero;"/>
                </g>
            </g>
        </g>
        <g transform="matrix(0.0158057,0,0,0.0158057,17.1197,29.8619)">
            <g transform="matrix(1,0,0,1,-886.5,-1250)">
                <path d="M1769.85,490.069L1608.9,2293.12L885.42,2493.68L163.938,2293.39L3.155,490.069L1769.85,490.069Z" style="fill:rgb(228,77,38);fill-rule:nonzero;"/>
                <path d="M886.5,2340.37L1471.11,2178.3L1608.64,637.514L886.5,637.514L886.5,2340.37Z" style="fill:rgb(241,101,41);fill-rule:nonzero;"/>
                <path d="M573.619,1079.86L886.5,1079.86L886.5,858.691L331.909,858.691L337.199,918.026L391.562,1527.51L886.5,1527.51L886.5,1306.34L593.834,1306.34L573.619,1079.86ZM623.467,1638.1L401.445,1638.1L432.428,1985.37L885.482,2111.14L886.5,2110.86L886.5,1880.75L885.53,1881L639.215,1814.49L623.467,1638.1Z" style="fill:rgb(235,235,235);fill-rule:nonzero;"/>
                <path d="M167.525,0L279.921,0L279.921,111.046L382.74,111.046L382.74,0L495.143,0L495.143,336.274L382.747,336.274L382.747,223.67L279.928,223.67L279.928,336.274L167.532,336.274L167.532,0L167.525,0ZM642.961,111.517L544.007,111.517L544.007,0L854.353,0L854.353,111.517L755.357,111.517L755.357,336.274L642.961,336.274L642.961,111.517ZM903.605,0L1020.8,0L1092.89,118.158L1164.91,0L1282.16,0L1282.16,336.274L1170.22,336.274L1170.22,169.598L1092.89,289.162L1090.95,289.162L1013.58,169.598L1013.58,336.274L903.605,336.274L903.605,0ZM1338.09,0L1450.52,0L1450.52,225.125L1608.58,225.125L1608.58,336.274L1338.09,336.274L1338.09,0Z" style="fill-rule:nonzero;"/>
                <path d="M885.738,1527.51L1158.09,1527.51L1132.41,1814.36L885.731,1880.93L885.731,2111.03L1339.14,1985.37L1342.47,1948.01L1394.45,1365.73L1399.85,1306.34L885.738,1306.34L885.738,1527.51ZM885.738,1079.32L885.738,1079.86L1419.97,1079.86L1424.4,1030.15L1434.49,918.026L1439.77,858.691L885.738,858.691L885.738,1079.33L885.738,1079.32Z" style="fill:white;fill-rule:nonzero;"/>
            </g>
        </g>
    </g>
</svg>
